<svg width="114" height="101" viewBox="0 0 114 101" fill="none" xmlns="http://www.w3.org/2000/svg">
<g id="react">
    <g clip-path="url(#clip0_13_2986)">
        <path d="M93.1056 32.7027C91.9031 32.2887 90.6904 31.9051 89.4687 31.5523C89.6739 30.7106 89.8628 29.8792 90.0305 29.0623C92.7838 15.6483 90.9839 4.84178 84.8361 1.28375C78.9416 -2.12722 69.3016 1.42949 59.5659 9.93342C58.6064 10.773 57.6682 11.6368 56.7521 12.524C56.1389 11.934 55.5149 11.3556 54.8803 10.7888C44.6767 1.69616 34.4493 -2.13608 28.3081 1.43215C22.4189 4.85374 20.675 15.0127 23.1538 27.7254C23.4004 28.9844 23.6788 30.237 23.9888 31.4819C22.5411 31.8947 21.1442 32.3342 19.8073 32.8019C7.84441 36.9881 0.204742 43.5483 0.204742 50.3529C0.204742 57.3808 8.40627 64.43 20.8661 68.7043C21.8763 69.0495 22.8948 69.3692 23.9209 69.6634C23.5876 71.0042 23.2918 72.354 23.0337 73.7114C20.6706 86.2035 22.516 96.1223 28.3893 99.5222C34.4555 103.033 44.637 99.4247 54.5506 90.7268C55.3545 90.0196 56.1407 89.2925 56.9084 88.546C57.9004 89.5066 58.9189 90.4393 59.9627 91.343C69.566 99.6365 79.0501 102.985 84.9177 99.5762C90.9782 96.055 92.948 85.3995 90.3907 72.4356C90.1892 71.42 89.9633 70.4094 89.7132 69.4047C90.4282 69.1921 91.13 68.9732 91.8141 68.7455C104.767 64.4384 113.195 57.4747 113.195 50.3529C113.195 43.5234 105.309 36.919 93.1056 32.7027ZM90.2962 64.1474C89.6783 64.3525 89.0445 64.5505 88.3983 64.7432C86.9683 60.1995 85.0386 55.3684 82.6769 50.3764C84.9305 45.5036 86.786 40.734 88.1759 36.22C89.3318 36.5558 90.4534 36.9097 91.5347 37.2832C101.991 40.8961 108.369 46.2372 108.369 50.3529C108.369 54.7367 101.481 60.4277 90.2962 64.1474ZM85.6557 73.3765C86.7865 79.1087 86.9476 84.2916 86.1986 88.3435C85.5259 91.9844 84.1727 94.4115 82.499 95.3839C78.9385 97.4526 71.3235 94.7637 63.111 87.6706C62.1401 86.8305 61.1927 85.9634 60.2699 85.0703C63.4539 81.5756 66.6357 77.5131 69.7412 73.0008C75.2036 72.5144 80.3641 71.7188 85.0439 70.6331C85.2694 71.5426 85.4734 72.4573 85.6557 73.3765ZM38.7257 95.0264C35.2468 96.2592 32.4759 96.2946 30.8009 95.3254C27.2369 93.2624 25.7552 85.298 27.7762 74.6151C28.0165 73.3527 28.2915 72.0972 28.6011 70.8502C33.2293 71.8779 38.3523 72.6168 43.8275 73.0624C46.9542 77.4776 50.2278 81.5358 53.5271 85.0894C52.8259 85.7703 52.1082 86.4338 51.3745 87.0793C46.9904 90.9252 42.5974 93.654 38.7257 95.0264ZM22.4277 64.1204C16.9181 62.2302 12.368 59.7738 9.24929 57.0933C6.44659 54.6848 5.032 52.2932 5.032 50.3529C5.032 46.2234 11.1657 40.9564 21.3962 37.3766C22.6378 36.9425 23.9372 36.5327 25.2856 36.1482C26.6997 40.7641 28.5544 45.5904 30.7925 50.4707C28.5252 55.4233 26.6441 60.3267 25.2163 64.997C24.2797 64.7278 23.3499 64.4355 22.4277 64.1204ZM27.891 26.7947C25.7676 15.9031 27.1777 7.68706 30.7268 5.62497C34.5067 3.42867 42.8653 6.56011 51.6755 14.4115C52.25 14.9247 52.8152 15.4482 53.3708 15.9819C50.0879 19.52 46.8443 23.548 43.7454 27.9371C38.4313 28.4315 33.3445 29.2253 28.6678 30.2889C28.3797 29.131 28.1206 27.9661 27.891 26.7951V26.7947ZM76.6301 38.8739C75.5255 36.9589 74.3798 35.0679 73.194 33.2024C76.7991 33.66 80.2533 34.2673 83.4969 35.0098C82.5233 38.1425 81.3095 41.4175 79.8808 44.7753C78.8365 42.7867 77.7527 40.8191 76.6301 38.8739ZM56.7544 19.4443C58.9806 21.8652 61.2104 24.5678 63.4036 27.5003C58.9546 27.2894 54.4982 27.2886 50.0491 27.4977C52.2444 24.5922 54.4932 21.8931 56.7544 19.4443ZM36.751 38.9071C35.6425 40.8367 34.5789 42.792 33.5613 44.7713C32.1559 41.4255 30.9532 38.1355 29.9712 34.9584C33.1949 34.2346 36.6327 33.6427 40.2149 33.1935C39.0159 35.0704 37.8609 36.9754 36.751 38.9067V38.9071ZM40.3177 67.8569C36.6169 67.4423 33.1274 66.881 29.9045 66.1767C30.902 62.9429 32.1312 59.5829 33.567 56.1653C34.5887 58.1461 35.6567 60.1026 36.77 62.033C37.9149 64.0176 39.1004 65.9614 40.3177 67.8569ZM56.8876 81.6027C54.5996 79.1255 52.3177 76.3848 50.0892 73.4372C52.2528 73.5222 54.4583 73.5656 56.7001 73.5656C59.0031 73.5656 61.2797 73.5138 63.5205 73.4137C61.3203 76.4145 59.0989 79.1592 56.8876 81.6027ZM79.9263 55.9907C81.4366 59.446 82.7095 62.7883 83.7203 65.9667C80.4444 66.7171 76.9073 67.3214 73.1804 67.7701C74.3746 65.8699 75.5311 63.9461 76.6491 61.9998C77.7858 60.0214 78.8784 58.0179 79.9263 55.9907ZM72.468 59.5794C70.7564 62.5634 68.9487 65.4909 67.0475 68.357C63.6038 68.6018 60.1524 68.7234 56.7001 68.7216C53.1837 68.7216 49.7635 68.6118 46.47 68.3974C44.5192 65.5378 42.677 62.6053 40.9471 59.6059H40.9476C39.2259 56.6225 37.6177 53.5745 36.1265 50.4685C37.6139 47.3618 39.2172 44.3124 40.933 41.3267L40.9326 41.3271C42.6477 38.3407 44.4753 35.4206 46.4113 32.5734C49.7714 32.3182 53.2172 32.1853 56.6996 32.1853H56.7001C60.1984 32.1853 63.6485 32.3195 67.0078 32.5765C68.9243 35.4195 70.7402 38.3295 72.4521 41.301C74.1736 44.2801 75.7981 47.3147 77.3231 50.3999C75.8138 53.5166 74.1944 56.5783 72.468 59.5794ZM82.4253 5.48056C86.2087 7.67067 87.6802 16.5024 85.303 28.0842C85.1512 28.8231 84.9808 29.5757 84.7954 30.339C80.1072 29.2528 75.0169 28.4452 69.6874 27.9433C66.5828 23.506 63.3656 19.4717 60.1361 15.9792C60.9825 15.1604 61.849 14.3628 62.7349 13.5871C71.0768 6.30141 78.8732 3.42468 82.4253 5.48056ZM56.7001 40.2263C62.2724 40.2263 66.7898 44.7603 66.7898 50.3529C66.7898 55.9456 62.2724 60.4795 56.7001 60.4795C51.1278 60.4795 46.6104 55.9456 46.6104 50.3529C46.6104 44.7603 51.1278 40.2263 56.7001 40.2263Z" fill="#00D8FF"/>
    </g>
    <defs>
        <clipPath id="clip0_13_2986">
            <rect width="113" height="101" fill="white" transform="translate(0.200012)"/>
        </clipPath>
    </defs>
</g>
    <g id="redux">
    <path d="M72.7792 69.5627C76.6509 69.1619 79.5882 65.8242 79.4546 61.8184C79.3214 57.8131 75.9833 54.6086 71.9779 54.6086H71.7111C67.5718 54.7422 64.3677 58.2135 64.5013 62.3525C64.6349 64.3553 65.4357 66.091 66.6374 67.2926C62.098 76.2385 55.1554 82.7807 44.7415 88.2549C37.6652 91.9934 30.3222 93.3287 22.9792 92.3943C16.971 91.593 12.298 88.923 9.3603 84.5164C5.08817 77.9742 4.68776 70.8975 8.29268 63.8213C10.8296 58.7475 14.8345 55.009 17.3714 53.1398C16.8374 51.4041 16.0361 48.4668 15.6357 46.3307C-3.72371 60.35 -1.72084 79.3094 4.15375 88.2549C8.55949 94.9311 17.505 99.0701 27.3849 99.0701C30.055 99.0701 32.7251 98.8029 35.3955 98.1357C52.4853 94.7975 65.4361 84.65 72.7792 69.5627ZM96.2775 53.0066C86.1304 41.1234 71.1771 34.5811 54.0873 34.5811H51.9513C50.7496 32.1779 48.2128 30.5754 45.4091 30.5754H45.1419C41.0033 30.709 37.7992 34.1803 37.9324 38.3197C38.066 42.325 41.4037 45.5295 45.4091 45.5295H45.6759C48.6132 45.3959 51.1501 43.5266 52.2181 40.9898H54.6214C64.7685 40.9898 74.3812 43.927 83.0599 49.6684C89.7353 54.0746 94.5419 59.816 97.2119 66.7586C99.4816 72.3664 99.348 77.8406 96.9447 82.5139C93.2066 89.5902 86.9316 93.4623 78.6537 93.4623C73.3132 93.4623 68.2398 91.8598 65.5693 90.6582C64.1009 91.9934 61.4304 94.1295 59.5611 95.4652C65.3025 98.1352 71.1771 99.6041 76.7845 99.6041C89.6017 99.6041 99.0812 92.5275 102.686 85.4512C106.558 77.707 106.291 64.3553 96.2775 53.0066ZM28.4529 71.832C28.5865 75.8377 31.9242 79.0418 35.9296 79.0418H36.1968C40.3357 78.9086 43.5398 75.4369 43.4062 71.2979C43.273 67.2922 39.9349 64.0881 35.9296 64.0881H35.6628C35.3955 64.0881 34.9947 64.0881 34.7283 64.2213C29.2542 55.1422 26.9845 45.2623 27.7857 34.5807C28.3193 26.5697 30.9898 19.6266 35.6628 13.8852C39.5345 8.94508 47.0111 6.5418 52.0849 6.40861C66.2369 6.14139 72.2447 23.7656 72.6455 30.8422C74.3812 31.2426 77.3185 32.1775 79.3214 32.8451C77.7189 11.2156 64.3677 0 51.5509 0C39.5345 0 28.4529 8.67869 24.0468 21.4963C17.9054 38.5865 21.9107 55.009 29.3874 67.9602C28.7201 68.8947 28.3193 70.3635 28.4529 71.8324V71.832Z" fill="#764ABC"/>

    </g>

    <g id="js"><path d="M8.11639 7.5H113.116V112.5H8.11639V7.5Z" fill="#F5DE19"/>
    <path d="M78.6501 89.5312C79.5448 91.3485 80.9347 92.8759 82.6598 93.9375C84.3848 94.9991 86.3747 95.5515 88.4001 95.5313C92.4876 95.5313 95.1014 93.4875 95.1014 90.6562C95.1014 87.2812 92.4164 86.0738 87.9164 84.105L85.4489 83.0475C78.3239 80.0138 73.5989 76.215 73.5989 68.1825C73.5989 60.7838 79.2239 55.1475 88.0476 55.1475C90.904 54.9412 93.7579 55.5805 96.2534 56.9856C98.7488 58.3907 100.775 60.4994 102.08 63.0488L94.3664 67.98C93.864 66.716 92.9892 65.6345 91.858 64.879C90.7268 64.1236 89.3927 63.7298 88.0326 63.75C87.4392 63.6906 86.84 63.7555 86.273 63.9404C85.7061 64.1254 85.1839 64.4265 84.7397 64.8244C84.2956 65.2224 83.9392 65.7085 83.6932 66.2518C83.4473 66.7951 83.3173 67.3837 83.3114 67.98C83.3114 70.9388 85.1451 72.1388 89.3789 73.98L91.8464 75.0375C100.231 78.6338 104.971 82.2975 104.971 90.5363C104.971 99.42 97.9926 104.287 88.6214 104.287C84.97 104.52 81.3293 103.691 78.1387 101.901C74.948 100.11 72.3438 97.4342 70.6401 94.1963L78.6501 89.5312ZM43.7939 90.3863C45.3426 93.135 46.7526 95.46 50.1426 95.46C53.3826 95.46 55.4301 94.1925 55.4301 89.2612V55.71H65.2964V89.3925C65.2964 99.6075 59.2964 104.257 50.5626 104.257C47.4755 104.426 44.4095 103.657 41.7677 102.051C39.126 100.444 37.0321 98.0761 35.7614 95.2575L43.7939 90.3863Z" fill="black"/>
</g>

    <g id="ts">
    <path d="M0 60V120H60H120V60V0H60H0V60Z" fill="#007ACC"/>
    <path d="M26.5375 60.3979L26.4994 65.3122H34.309H42.1185L42.1185 87.5026V109.693H47.6423H53.1661V87.5026L53.1661 65.3122H60.9756H68.7852V60.4931C68.7852 57.8264 68.728 55.5979 68.6518 55.5407C68.5947 55.4645 59.0899 55.4264 47.5661 55.4455L26.5947 55.5026L26.5375 60.3979Z" fill="white"/>
    <path d="M96.8265 55.3636C99.8741 56.1255 102.198 57.4779 104.331 59.6874C105.436 60.8684 107.074 63.0208 107.207 63.535C107.246 63.6874 102.026 67.1922 98.8646 69.1541C98.7503 69.2303 98.2931 68.7351 97.7789 67.9731C96.236 65.7255 94.6169 64.7541 92.1408 64.5827C88.5027 64.335 86.1598 66.2398 86.1789 69.4208C86.1789 70.3541 86.3122 70.9065 86.6931 71.6684C87.4931 73.3255 88.9789 74.316 93.6455 76.3351C102.236 80.0303 105.912 82.4684 108.198 85.935C110.75 89.8017 111.322 95.9731 109.588 100.564C107.684 105.554 102.96 108.945 96.3122 110.068C94.255 110.43 89.3789 110.373 87.1693 109.973C82.3503 109.116 77.7789 106.735 74.9598 103.611C73.855 102.392 71.7027 99.2112 71.836 98.9827C71.8931 98.9065 72.3884 98.6017 72.9408 98.2779C73.4741 97.9731 75.4931 96.8112 77.3979 95.7065L80.8455 93.7065L81.5693 94.7731C82.5789 96.316 84.7884 98.4303 86.1217 99.135C89.9503 101.154 95.2074 100.868 97.7979 98.5446C98.9027 97.535 99.3598 96.4874 99.3598 94.9446C99.3598 93.5541 99.1884 92.9446 98.4646 91.897C97.5312 90.5636 95.6265 89.4398 90.2169 87.097C84.0265 84.4303 81.3598 82.7731 78.9217 80.1446C77.5122 78.6208 76.1789 76.1827 75.6265 74.1446C75.1693 72.4493 75.055 68.2017 75.4169 66.4874C76.6931 60.5065 81.2074 56.335 87.7217 55.097C89.836 54.697 94.7503 54.8493 96.8265 55.3636Z" fill="white"/>

    </g>
</svg>
